<svg t="1629252693165" class="icon" viewBox="0 0 1024 1024" version="1.1" xmlns="http://www.w3.org/2000/svg" p-id="10977" width="200" height="200"><path d="M933.3 789.2L587.7 190.6c-12-20.8-33.5-33.2-57.5-33.2s-45.5 12.4-57.5 33.2L127.1 789.2c-12 20.8-12 45.6 0 66.4 12 20.8 33.5 33.2 57.5 33.2h691.2c24 0 45.5-12.4 57.5-33.2 12-20.8 12-45.6 0-66.4z m-35.4 46c-2.2 3.8-8.8 12.8-22.1 12.8H184.6c-13.3 0-19.9-8.9-22.1-12.8-2.2-3.8-6.7-14 0-25.6L508 211c6.7-11.5 17.7-12.8 22.1-12.8s15.5 1.3 22.1 12.8l345.6 598.6c6.8 11.5 2.4 21.7 0.1 25.6z" fill="#C280FF" p-id="10978"></path><path d="M606.1 475H478.6l-51.5 184.8h106.4l-54.9 153.3 177.8-212.9H542.3z" fill="#C280FF" p-id="10979"></path></svg>