<svg t="1629252718792" class="icon" viewBox="0 0 1024 1024" version="1.1" xmlns="http://www.w3.org/2000/svg" p-id="11934" width="200" height="200"><path d="M805.4 518.6c0-161.4-131.3-292.7-292.7-292.7S220 357.2 220 518.6V819h-72v64h733.3v-64h-76V518.6zM284 819V518.6c0-126.1 102.6-228.7 228.7-228.7s228.7 102.6 228.7 228.7V819H284zM119.7 489.2H192v64h-72.3z" fill="#C280FF" p-id="11935"></path><path d="M827.7 489.2H900v64h-72.3zM712.05 273.8l51.123-51.123 45.255 45.254-51.123 51.124zM477.9 131h64v72.3h-64zM211.295 267.958l45.255-45.255 51.123 51.124-45.254 45.254zM542.6 419.8l-57.5-28-103.5 212.7h149.3l-47.2 131.9L544 758l77.7-217.5H484z" fill="#C280FF" p-id="11936"></path></svg>