<?xml version="1.0" encoding="utf-8"?>
<!-- Generator: Adobe Illustrator 16.0.0, SVG Export Plug-In . SVG Version: 6.00 Build 0)  -->
<!DOCTYPE svg PUBLIC "-//W3C//DTD SVG 1.1//EN" "http://www.w3.org/Graphics/SVG/1.1/DTD/svg11.dtd">
<svg version="1.1" id="图层_1" xmlns="http://www.w3.org/2000/svg" xmlns:xlink="http://www.w3.org/1999/xlink" x="0px" y="0px"
	 width="419.527px" height="432.886px" viewBox="0 0 419.527 432.886" enable-background="new 0 0 419.527 432.886"
	 xml:space="preserve">
<path fill-rule="evenodd" clip-rule="evenodd" fill="#8856A0" d="M419.184,386.971c-0.62-11.141-1.068-22.294-1.446-33.446
	c-1.517-44.788-2.983-89.577-4.579-137.69c-0.397-9.992-0.986-23.305-1.445-36.622c-1.446-41.956-2.854-83.914-4.254-125.871
	c-0.361-10.801-3.622-20.639-10.069-29.278c-12.394-16.606-29.45-23.947-49.781-23.998c-47.327-0.118-94.654-0.039-141.98-0.039
	c-44.661,0-89.322,0.066-133.982-0.021C40.101-0.056,12.378,21.73,11.569,56.443c-1.032,44.3-2.803,88.582-4.275,132.871
	c-0.691,20.812-1.416,41.624-2.146,62.434c-1.574,44.949-3.122,89.9-4.815,134.846c-0.137,3.633,1.006,4.465,4.439,4.398
	c10.661-0.207,21.33,0.006,31.994-0.129c2.805-0.035,3.744,0.699,3.572,3.645c-0.283,4.814-0.258,9.67,0.004,14.488
	c0.653,11.977,11.106,22.527,23.105,22.828c13.322,0.336,26.665,0.314,39.989,0.014c11.629-0.262,21.946-10.111,23.124-21.697
	c0.471-4.625,1.012-9.41,0.326-13.941c-0.734-4.85,0.896-5.381,5.113-5.369c48.826,0.135,97.652,0.086,146.479,0.088
	c3.666,0,7.337,0.107,10.997-0.035c2.418-0.094,3.16,0.789,3.048,3.191c-0.202,4.324-0.168,8.664-0.073,12.994
	c0.3,13.822,11.063,24.67,24.854,24.846c12.329,0.156,24.664,0.143,36.994,0.002c12.185-0.141,21.863-8.313,24.445-20.316
	c1.208-5.611,0.74-11.307,0.46-16.932c-0.161-3.232,0.669-3.867,3.691-3.818c10.829,0.172,21.665-0.039,32.494,0.133
	C418.539,391.034,419.354,390.024,419.184,386.971z M71.506,338.084c-17.65-0.195-31.368-14.256-31.267-32.049
	c0.102-17.721,14.036-31.527,31.803-31.512c17.975,0.016,31.881,14.051,31.756,32.052
	C103.674,324.513,89.562,338.283,71.506,338.084z M208.944,222.139c-51.154,0-102.311-0.091-153.466,0.139
	c-5.277,0.023-6.216-1.504-6.047-6.389c1.558-44.949,2.853-89.908,4.28-134.862c0.115-3.654,0.42-7.334,1.027-10.936
	c3.004-17.797,12.965-26.791,31.025-28.101c3.152-0.229,6.328-0.201,9.492-0.202c76.317-0.01,152.635-0.014,228.951,0.009
	c4.487,0.001,8.961-0.027,13.44,0.788c16.24,2.955,24.458,11.482,26.85,27.747c1.582,10.766,1.177,21.617,1.591,32.416
	c1.454,37.953,2.351,75.926,3.671,113.884c0.151,4.359-0.821,5.629-5.349,5.613C312.59,222.079,260.768,222.139,208.944,222.139z
	 M347.331,338.09c-17.864-0.012-31.984-14.205-31.889-32.055c0.095-17.533,14.259-31.51,31.93-31.506
	c17.606,0.003,31.839,14.049,31.97,31.549C379.474,323.774,365.146,338.101,347.331,338.09z"/>
</svg>
